<svg xmlns="http://www.w3.org/2000/svg" viewBox="0 0 100 100">
  <defs>
    <linearGradient id="gradient" x1="0%" y1="0%" x2="100%" y2="100%">
      <stop offset="0%" style="stop-color:#ff6b35"/>
      <stop offset="100%" style="stop-color:#ff8c5a"/>
    </linearGradient>
  </defs>
  <rect width="100" height="100" rx="20" fill="url(#gradient)"/>
  <!-- Font Awesome fa-cube icon path -->
  <g transform="translate(18, 18) scale(0.125)" fill="white">
    <path d="M234.5 5.7c13.9-5 29.1-5 43.1 0l192 68.3C495 83.4 512 107.5 512 134.6V377.4c0 27-17 51.2-42.5 60.6l-192 68.3c-13.9 5-29.1 5-43.1 0l-192-68.3C17 428.6 0 404.5 0 377.4V134.6c0-27 17-51.2 42.5-60.6l192-68.3zM256 66L82.3 128 256 190l173.7-62L256 66zm32 368.6l160-57.1v-188L288 246.6v188z"/>
  </g>
</svg>
